PathFileType	4	(X/Y/Z)	/Users/itak/Documents/Research/Walk-IL/dataset/trc/00429_00167.trc
DataRate	CameraRate	NumFrames	NumMarkers	Units	OrigDataRate	OrigDataStartFrame	OrigNumFrames
100.000000	100.000000	4	53	mm	100.000000	252	673
Frame#	Time	RPSI			LPSI			L3			STRN			T10			C7			CLAV			RBAK			LBAK			LSHO			LUPA			LAEL			LAOL			LWTS			LWPS			LFRA			LIFD			LHPS			LHTS			RSHO			RUPA			RAEL			RAOL			RWTS			RWPS			RFRA			RIFD			RHTS			RHPS			RBHD			LFHD			RFHD			LBHD			LHIP			RHIP			RASI			LASI			LKNE			LTHI			LANK			LTIP			LTOE			LMT1			LMT5			LHEE			RKNE			RTHI			RANK			RTIP			RTOE			RMT1			RMT5			RHEE			
		X1	Y1	Z1	X2	Y2	Z2	X3	Y3	Z3	X4	Y4	Z4	X5	Y5	Z5	X6	Y6	Z6	X7	Y7	Z7	X8	Y8	Z8	X9	Y9	Z9	X10	Y10	Z10	X11	Y11	Z11	X12	Y12	Z12	X13	Y13	Z13	X14	Y14	Z14	X15	Y15	Z15	X16	Y16	Z16	X17	Y17	Z17	X18	Y18	Z18	X19	Y19	Z19	X20	Y20	Z20	X21	Y21	Z21	X22	Y22	Z22	X23	Y23	Z23	X24	Y24	Z24	X25	Y25	Z25	X26	Y26	Z26	X27	Y27	Z27	X28	Y28	Z28	X29	Y29	Z29	X30	Y30	Z30	X31	Y31	Z31	X32	Y32	Z32	X33	Y33	Z33	X34	Y34	Z34	X35	Y35	Z35	X36	Y36	Z36	X37	Y37	Z37	X38	Y38	Z38	X39	Y39	Z39	X40	Y40	Z40	X41	Y41	Z41	X42	Y42	Z42	X43	Y43	Z43	X44	Y44	Z44	X45	Y45	Z45	X46	Y46	Z46	X47	Y47	Z47	X48	Y48	Z48	X49	Y49	Z49	X50	Y50	Z50	X51	Y51	Z51	X52	Y52	Z52	X53	Y53	Z53	

253	2.52	-654.5220336914062	965.2344970703125	-45.88527297973633	-584.2999267578125	960.211669921875	-170.4855194091797	-615.7252807617188	1062.355346679688	-79.562744140625	-374.1504821777344	1247.868774414062	42.9189567565918	-630.9111328125	1186.394287109375	-87.56319427490234	-575.16064453125	1452.959594726562	-44.2626953125	-404.1222839355469	1362.35693359375	26.27502632141113	-674.7593383789062	1332.777709960938	12.67195701599121	-558.1942138671875	1408.081787109375	-149.3008575439453	-429.2864379882812	1424.463012695312	-168.951904296875	-386.4242858886719	1310.210815429688	-262.4282836914062	-327.5667419433594	1105.471313476562	-284.5444641113281	-423.8613586425781	1068.576293945312	-268.6548767089844	-226.748046875	950.4005126953125	-167.0525665283203	-227.0790100097656	916.6272583007812	-232.9994201660156	-281.0948181152344	1030.623046875	-266.3515319824219	-165.5403747558594	797.7156372070312	-128.0924987792969	-195.0376892089844	845.6049194335938	-209.3751831054688	-179.1431121826172	875.1729736328125	-146.7103576660156	-582.3111572265625	1420.60400390625	130.9931335449219	-630.1067504882812	1361.186401367188	193.9630432128906	-641.6636352539062	1079.30615234375	266.6438598632812	-671.7466430664062	1052.220947265625	211.8492126464844	-495.3230895996094	906.3390502929688	289.6868896484375	-575.1556396484375	876.7140502929688	315.4346313476562	-632.2645874023438	1022.972229003906	282.73779296875	-464.3883361816406	753.732177734375	324.1525268554688	-466.7497863769531	814.7971801757812	323.1430053710938	-540.0849609375	797.8019409179688	333.9224853515625	-543.5502319335938	1644.036499023438	67.2933349609375	-351.4314575195312	1664.933715820312	-6.778854370117188	-412.9015502929688	1664.218872070312	108.6553497314453	-473.4580688476562	1650.044067382812	-96.82463836669922	-397.8422241210938	860.2013549804688	-202.0265197753906	-619.6339721679688	853.7630004882812	130.5113677978516	-500.5385437011719	895.2435913085938	129.1204528808594	-366.1486511230469	900.9061889648438	-84.66587829589844	-295.4256591796875	454.6892395019531	-137.6930084228516	-288.0694580078125	612.6337280273438	-145.0797576904297	-519.02685546875	110.9547576904297	-255.8396148681641	-364.3328247070312	315.7149047851562	-188.8796234130859	-337.1465148925781	50.89757537841797	-127.9039154052734	-412.8545837402344	65.11730194091797	-121.0040283203125	-380.8886413574219	75.11075592041016	-226.1756439208984	-583.308349609375	127.5399932861328	-224.0549468994141	-567.92724609375	456.2496337890625	78.94872283935547	-577.8305053710938	715.6543579101562	147.4762878417969	-585.8140869140625	43.11706924438477	10.48291110992432	-567.2793579101562	307.4009704589844	70.37187957763672	-374.6430053710938	48.36871337890625	64.24995422363281	-413.8753356933594	49.68779373168945	4.174585342407227	-477.8804626464844	50.8559455871582	89.73621368408203	-624.6121215820312	33.41344451904297	-60.76762008666992	
254	2.53	-650.7963256835938	964.8777465820312	-43.58950042724609	-580.3134765625	959.750732421875	-168.0479278564453	-612.1353759765625	1062.130615234375	-77.03226470947266	-370.5402221679688	1247.632446289062	45.60456848144531	-627.3505859375	1186.213012695312	-84.76961517333984	-571.4354248046875	1452.775268554688	-41.42805480957031	-400.4722595214844	1362.147583007812	28.90323257446289	-671.0955200195312	1332.760864257812	15.5339241027832	-554.6099853515625	1407.8564453125	-146.5107269287109	-425.7140502929688	1424.053833007812	-166.3544158935547	-383.1929016113281	1309.71044921875	-259.8333129882812	-324.947021484375	1104.74365234375	-282.0599060058594	-421.4299926757812	1068.290161132812	-266.1628112792969	-224.5806121826172	948.9220581054688	-165.1296691894531	-225.1735382080078	915.2896728515625	-231.1591644287109	-278.7710876464844	1029.645874023438	-264.1304626464844	-164.0081481933594	795.8944702148438	-126.5869140625	-193.4979095458984	844.0545654296875	-207.7694854736328	-177.3664093017578	873.3934936523438	-145.06787109375	-578.4620361328125	1420.421142578125	133.8756103515625	-626.2906494140625	1360.90625	196.7707061767578	-638.1865234375	1078.64404296875	268.4565124511719	-668.375244140625	1052.000732421875	213.5074920654297	-492.8408813476562	904.6443481445312	290.4200134277344	-572.8618774414062	875.3307495117188	316.05078125	-629.108154296875	1022.149719238281	284.2419738769531	-462.7454528808594	751.6641845703125	323.911865234375	-464.7706298828125	812.7481689453125	323.3290710449219	-538.2296142578125	796.101806640625	334.0264282226562	-539.26025390625	1643.97216796875	69.827392578125	-347.2026672363281	1664.366455078125	-4.594109058380127	-408.4248657226562	1663.939086914062	110.97314453125	-469.390625	1649.634033203125	-94.37310028076172	-393.2672729492188	860.3466796875	-198.9247131347656	-616.4880981445312	853.4600219726562	132.75048828125	-497.28271484375	894.858642578125	131.8484039306641	-362.5149536132812	901.2417602539062	-81.49223327636719	-287.1275329589844	455.8347778320312	-130.9190216064453	-281.8338317871094	613.9952392578125	-139.7562561035156	-498.0217590332031	102.9069061279297	-244.1178436279297	-351.0771484375	313.9984130859375	-180.0025024414062	-314.9241333007812	51.73630905151367	-114.0010070800781	-391.1138610839844	63.33729553222656	-107.7960357666016	-358.9344787597656	72.69410705566406	-212.9311218261719	-563.2565307617188	117.5750579833984	-212.8665771484375	-566.478515625	455.9967041015625	80.13025665283203	-575.1456298828125	715.2555541992188	149.4290313720703	-585.8829345703125	42.98856353759766	10.56201839447021	-566.5237426757812	307.1444396972656	71.17108154296875	-374.75439453125	48.21529388427734	64.46006011962891	-413.8627014160156	49.74518203735352	4.413122653961182	-478.0442504882812	50.47722625732422	90.18096923828125	-624.6262817382812	33.53920745849609	-60.77078247070312	
255	2.54	-647.0030517578125	964.4668579101562	-41.36869812011719	-576.2191772460938	959.2225952148438	-165.6666870117188	-608.5011596679688	1061.873657226562	-74.55079650878906	-366.89208984375	1247.343139648438	48.28647613525391	-623.7154541015625	1185.995239257812	-82.02669525146484	-567.66015625	1452.554321289062	-38.58426666259766	-396.7831726074219	1361.90185546875	31.53136825561523	-667.3944702148438	1332.6982421875	18.40018844604492	-550.968994140625	1407.603271484375	-143.7093353271484	-422.0779724121094	1423.615356445312	-163.7438201904297	-379.9178161621094	1309.169921875	-257.2306518554688	-322.3733215332031	1103.919677734375	-279.5805969238281	-419.1646118164062	1068.060791015625	-263.6767883300781	-222.5998229980469	947.0863647460938	-163.3926544189453	-223.5712432861328	913.6675415039062	-229.5397338867188	-276.5842590332031	1028.490600585938	-261.9938354492188	-162.9082794189453	793.5736083984375	-125.4713592529297	-192.3737182617188	842.1533813476562	-206.4851531982422	-175.9103240966797	871.1690063476562	-143.7110443115234	-574.5696411132812	1420.1787109375	136.7666320800781	-622.4458618164062	1360.563354492188	199.5926055908203	-634.6983032226562	1077.893432617188	270.2079162597656	-664.9867553710938	1051.731567382812	215.080322265625	-490.5015563964844	902.7467651367188	291.0257873535156	-570.7420043945312	873.7988891601562	316.5149536132812	-625.984619140625	1021.229248046875	285.6614379882812	-461.3936157226562	749.35693359375	323.4683837890625	-463.029541015625	810.4561157226562	323.346923828125	-536.6194458007812	794.2194213867188	333.9396667480469	-534.9239501953125	1643.857788085938	72.41839599609375	-342.9327697753906	1663.758178710938	-2.353071451187134	-403.8979187011719	1663.598388671875	113.3481597900391	-465.280029296875	1649.203735351562	-91.88748168945312	-388.6166076660156	860.4244384765625	-195.8216400146484	-613.3505859375	853.153564453125	134.9450378417969	-494.0516662597656	894.447021484375	134.5558319091797	-358.7842712402344	901.5444946289062	-78.30558776855469	-278.9176025390625	456.91357421875	-124.19384765625	-275.6855163574219	615.25244140625	-134.5140838623047	-476.704833984375	95.24639129638672	-232.1982879638672	-337.7416381835938	312.3880615234375	-171.0428619384766	-293.0290832519531	52.75931167602539	-99.69088745117188	-369.6205749511719	61.87661743164062	-94.27410125732422	-336.97802734375	70.46044921875	-199.3320770263672	-542.8508911132812	108.1242828369141	-201.5832214355469	-565.11083984375	455.7542114257812	81.26163482666016	-572.4998779296875	714.8518676757812	151.32861328125	-585.9314575195312	42.85917663574219	10.62187099456787	-565.8097534179688	306.9055480957031	71.91477203369141	-374.8554992675781	48.06941604614258	64.66905975341797	-413.8500366210938	49.80035018920898	4.639424800872803	-478.1852416992188	50.11763000488281	90.59806823730469	-624.641357421875	33.67670059204102	-60.76423645019531	
256	2.55	-643.1388549804688	964.005126953125	-39.21856689453125	-572.016357421875	958.6367797851562	-163.3317108154297	-604.8279418945312	1061.581909179688	-72.10929870605469	-363.2086486816406	1247.001342773438	50.97106170654297	-619.9925537109375	1185.739501953125	-79.33860778808594	-563.8310546875	1452.294677734375	-35.7382926940918	-393.0482177734375	1361.614379882812	34.16389846801758	-663.6546630859375	1332.58154296875	21.26217460632324	-547.263916015625	1407.320556640625	-140.9002075195312	-418.3751220703125	1423.147338867188	-161.1228332519531	-376.6007690429688	1308.58447265625	-254.6234130859375	-319.8340759277344	1102.998779296875	-277.1097106933594	-417.0650329589844	1067.885375976562	-261.1841125488281	-220.8127593994141	944.9048461914062	-161.8440399169922	-222.2739410400391	911.7723999023438	-228.1386260986328	-274.5293579101562	1027.159057617188	-259.9429931640625	-162.2382659912109	790.7763671875	-124.7453842163086	-191.6484680175781	839.9218139648438	-205.5101776123047	-174.7651824951172	868.5205688476562	-142.6334381103516	-570.6387329101562	1419.874145507812	139.6609191894531	-618.5742797851562	1360.155517578125	202.4224395751953	-631.1854248046875	1077.058959960938	271.9062194824219	-661.5786743164062	1051.417236328125	216.5860290527344	-488.2960205078125	900.6541137695312	291.509765625	-568.7796020507812	872.1317749023438	316.84521484375	-622.8792114257812	1020.21826171875	287.0072326660156	-460.3374938964844	746.8165283203125	322.8268432617188	-461.5244445800781	807.92578125	323.1923828125	-535.2500610351562	792.17138671875	333.6780090332031	-530.5376586914062	1643.698120117188	75.06871795654297	-338.6201171875	1663.1103515625	-0.05468839779496193	-399.32177734375	1663.198608398438	115.7787094116211	-461.129638671875	1648.7529296875	-89.36821746826172	-383.883056640625	860.4461669921875	-192.6991729736328	-610.2261962890625	852.8441162109375	137.1011505126953	-490.8517456054688	894.0075073242188	137.2414855957031	-354.9512329101562	901.7981567382812	-75.09478759765625	-270.7899475097656	457.9366760253906	-117.5162048339844	-269.6219482421875	616.4073486328125	-129.3491516113281	-455.1421813964844	88.03945159912109	-220.0907745361328	-324.3485717773438	310.9163208007812	-162.0151062011719	-271.5178527832031	53.90695953369141	-85.01502990722656	-348.4366455078125	60.71640396118164	-80.48463439941406	-315.068359375	68.42501068115234	-185.4045715332031	-522.1484985351562	99.26865386962891	-190.2312927246094	-563.8076782226562	455.52197265625	82.34037017822266	-569.8893432617188	714.4411010742188	153.1759490966797	-585.9570922851562	42.73852920532227	10.65748023986816	-565.1239013671875	306.6825866699219	72.60396575927734	-374.9434509277344	47.93845748901367	64.86785125732422	-413.8424377441406	49.85046005249023	4.843634605407715	-478.2976684570312	49.79383850097656	90.96327209472656	-624.6597290039062	33.82062149047852	-60.75066757202148	
